<?xml version="1.0" standalone="no"?>
<!DOCTYPE svg PUBLIC "-//W3C//DTD SVG 20010904//EN"
 "http://www.w3.org/TR/2001/REC-SVG-20010904/DTD/svg10.dtd">
<svg version="1.0" xmlns="http://www.w3.org/2000/svg"
 width="734.000000pt" height="241.000000pt" viewBox="0 0 734.000000 241.000000"
 preserveAspectRatio="xMidYMid meet">

<g transform="translate(0.000000,241.000000) scale(0.100000,-0.100000)"
fill="#ffffff" stroke="none">
<path d="M3080 1900 c-26 -26 -26 -81 -2 -103 45 -40 122 -6 122 53 0 17 -9
39 -20 50 -11 11 -33 20 -50 20 -17 0 -39 -9 -50 -20z"/>
<path d="M3599 1902 c-28 -23 -30 -73 -4 -102 24 -26 79 -26 105 0 63 63 -31
158 -101 102z"/>
<path d="M3337 1903 c-4 -3 -7 -177 -7 -385 l0 -378 60 0 60 0 0 385 0 385
-53 0 c-30 0 -57 -3 -60 -7z"/>
<path d="M1890 1856 c0 -2 -58 -162 -130 -356 -71 -194 -130 -354 -130 -356 0
-2 29 -4 63 -4 l64 0 24 70 24 70 152 0 152 0 22 -70 23 -70 67 0 67 0 -115
303 c-63 166 -124 328 -135 360 l-20 57 -64 0 c-35 0 -64 -2 -64 -4z m124
-309 c31 -86 56 -159 56 -162 0 -3 -52 -5 -116 -5 -107 0 -116 1 -109 18 10
25 105 306 105 311 0 15 14 -22 64 -162z"/>
<path d="M5127 1843 c-1 -1 -1 -159 1 -352 l3 -351 74 0 75 0 2 218 3 217 22
-55 c12 -30 53 -127 91 -215 l70 -160 55 -3 55 -3 25 63 c14 35 57 135 96 223
l71 160 0 -222 0 -223 75 0 75 0 0 353 0 352 -94 1 c-86 1 -95 -1 -104 -20 -5
-12 -48 -120 -96 -241 -48 -121 -91 -223 -95 -228 -4 -4 -31 52 -59 125 -28
73 -73 184 -99 246 l-48 114 -98 1 c-54 1 -99 1 -100 0z"/>
<path d="M6044 1841 c-2 -2 -4 -161 -4 -353 l0 -348 218 0 217 0 -1 62 -2 63
-136 3 -136 3 0 79 0 80 125 0 125 0 0 60 0 59 -122 3 -123 3 0 80 0 80 135 5
135 5 0 59 0 60 -213 0 c-118 1 -215 -1 -218 -3z"/>
<path d="M6580 1489 l0 -351 188 4 187 3 67 33 c139 68 209 221 178 386 -23
123 -98 211 -215 255 -49 18 -78 21 -230 21 l-175 0 0 -351z m338 196 c79 -34
122 -101 122 -192 -1 -138 -82 -213 -232 -213 l-58 0 0 210 0 210 65 0 c37 0
82 -7 103 -15z"/>
<path d="M2526 1685 c-177 -63 -235 -328 -103 -472 53 -58 110 -84 186 -84 69
-1 124 20 169 63 l32 32 0 -73 c0 -79 -12 -111 -57 -153 -71 -66 -195 -49
-241 33 -16 27 -21 29 -75 29 -56 0 -58 -1 -52 -22 4 -13 19 -41 34 -63 93
-137 316 -152 433 -29 71 75 73 82 76 432 l3 312 -60 0 -61 0 0 -42 0 -42 -32
32 c-18 17 -50 38 -70 46 -46 19 -130 20 -182 1z m212 -112 c45 -33 73 -94 73
-161 1 -114 -64 -186 -166 -186 -122 0 -197 110 -165 241 13 55 33 83 81 113
44 27 135 24 177 -7z"/>
<path d="M3983 1684 c-65 -23 -128 -86 -152 -150 -66 -175 22 -363 187 -399
152 -33 303 43 347 174 21 66 17 179 -9 233 -28 58 -91 115 -152 138 -65 24
-159 25 -221 4z m180 -98 c114 -48 138 -240 42 -325 -79 -69 -207 -44 -256 49
-23 43 -26 158 -5 198 41 79 136 113 219 78z"/>
<path d="M4700 1689 c-13 -6 -39 -21 -57 -34 -40 -32 -43 -31 -43 5 0 30 -1
30 -55 30 l-55 0 0 -275 0 -275 54 0 54 0 4 178 c4 197 12 226 71 262 45 28
125 27 162 -2 48 -38 55 -71 55 -263 l0 -175 61 0 60 0 -3 203 c-3 184 -5 206
-25 242 -27 50 -58 80 -105 100 -41 17 -140 19 -178 4z"/>
<path d="M3070 1415 l0 -275 60 0 60 0 0 275 0 275 -60 0 -60 0 0 -275z"/>
<path d="M3590 1415 l0 -275 58 0 58 0 -1 275 0 275 -57 0 -58 0 0 -275z"/>
</g>
</svg>
