<?xml version="1.0" encoding="UTF-8"?>
<!-- Uploaded to: SVG Find, www.svgfind.com, Generator: SVG Find Mixer Tools -->
<svg fill="#000000" width="800px" height="800px" version="1.1" viewBox="144 144 512 512" xmlns="http://www.w3.org/2000/svg">
 <g>
  <path d="m509.43 614.12h58.492c23.629 0 42.875-19.246 42.875-42.875v-74.766c-16.02 29.625-33.199 54.766-51.34 75.016-15.719 17.637-32.496 31.895-50.027 42.625z"/>
  <path d="m189.2 571.24c0 23.629 19.246 42.875 42.875 42.875h247.32c14.508-13.957 19.949-37.887 17.18-74.969-0.65625-8.7148 1.8125-17.434 6.9531-24.484 5.1406-7.1055 12.645-12.09 21.16-14.156 29.121-7.0547 57.332-18.539 86.102-35.066v-132.85h-421.59z"/>
  <path d="m567.92 226.59h-37.684v6.3984c0 4.3828 3.5273 7.9102 7.9102 7.9102 3.6289 0 6.6016 2.9727 6.6016 6.6016s-2.9727 6.6016-6.6016 6.6016c-11.637 0-21.109-9.4727-21.109-21.109v-6.3984l-124.95-0.003906v6.3984c0 4.3828 3.5273 7.9102 7.9102 7.9102 3.6289 0 6.6016 2.9727 6.6016 6.6016s-2.9727 6.6016-6.6016 6.6016c-11.637 0-21.109-9.4727-21.109-21.109v-6.3984l-125-0.003906v6.3984c0 4.3828 3.5273 7.9102 7.9102 7.9102 3.6289 0 6.6016 2.9727 6.6016 6.6016s-2.9727 6.6016-6.6016 6.6016c-11.637 0-21.109-9.4727-21.109-21.109v-6.3984h-8.6641c-23.629 0-42.875 19.246-42.875 42.875l-0.003906 49.926h421.59v-49.977c0.054688-23.633-19.191-42.828-42.82-42.828z"/>
  <path d="m502.73 602.78c36.527-22.469 69.727-61.816 99.098-117.44-24.535 12.695-48.918 21.914-73.961 27.961-11.336 2.7188-18.941 13.199-18.086 24.887 1.5117 20.254 0.70703 36.727-2.418 50.332-1.2578 5.0898-2.7695 9.875-4.6328 14.258z"/>
  <path d="m253.89 213.39v-6.3984c0-4.3828 3.5273-7.9102 7.9102-7.9102 4.3828 0 7.9102 3.5273 7.9102 7.9102v6.3984h13.199v-6.3984c0-11.637-9.4727-21.109-21.109-21.109-11.637 0-21.109 9.4727-21.109 21.109v19.598h13.199z"/>
  <path d="m392.09 213.39v-6.3984c0-4.3828 3.5273-7.9102 7.9102-7.9102s7.9102 3.5273 7.9102 7.9102v6.3984h13.199v-6.3984c0-11.637-9.4727-21.109-21.109-21.109s-21.109 9.4727-21.109 21.109v19.598h13.199z"/>
  <path d="m530.23 213.39v-6.3984c0-4.3828 3.5273-7.9102 7.9102-7.9102 4.3828 0 7.957 3.5273 7.957 7.9102v6.3984h13.199v-6.3984c0-11.637-9.4727-21.109-21.109-21.109-11.637 0-21.109 9.4727-21.109 21.109v19.598h13.199l0.003906-13.199z"/>
 </g>
</svg>