<?xml version="1.0" encoding="UTF-8"?>
<!-- Uploaded to: SVG Find, www.svgfind.com, Generator: SVG Find Mixer Tools -->
<svg fill="#000000" width="800px" height="800px" version="1.1" viewBox="144 144 512 512" xmlns="http://www.w3.org/2000/svg">
 <g>
  <path d="m211.07 242.56h94.465c0-26.086-21.148-47.234-47.234-47.234-26.086 0-47.23 21.148-47.23 47.234z"/>
  <path d="m494.46 242.56h94.465c0-26.086-21.145-47.234-47.23-47.234-26.086 0-47.234 21.148-47.234 47.234z"/>
  <path d="m588.93 258.3h-377.86c-18.344 6.4844-31.488 26.668-31.488 47.234v251.9c0 26.086 21.145 47.234 47.23 47.234h346.37c26.086 0 47.23-21.148 47.23-47.234v-251.9c0-20.566-13.141-40.75-31.488-47.234zm-299.14 78.723c0 8.6953-7.0469 15.742-15.742 15.742s-15.746-7.0469-15.746-15.742c0-8.6953 7.0508-15.746 15.746-15.746s15.742 7.0508 15.742 15.746zm-15.742 78.719c8.6953 0 15.742-7.0469 15.742-15.742s-7.0469-15.746-15.742-15.746-15.746 7.0508-15.746 15.746 7.0508 15.742 15.746 15.742zm15.742 47.234c0 8.6953-7.0469 15.742-15.742 15.742s-15.746-7.0469-15.746-15.742c0-8.6992 7.0508-15.746 15.746-15.746s15.742 7.0469 15.742 15.746zm-15.742 78.719c8.6953 0 15.742-7.0508 15.742-15.746 0-8.6953-7.0469-15.742-15.742-15.742s-15.746 7.0469-15.746 15.742c0 8.6953 7.0508 15.746 15.746 15.746zm78.719-204.67c0 8.6953-7.0469 15.742-15.742 15.742-8.6953 0-15.746-7.0469-15.746-15.742 0-8.6953 7.0508-15.746 15.746-15.746 8.6953 0 15.742 7.0508 15.742 15.746zm-15.742 78.719c8.6953 0 15.742-7.0469 15.742-15.742s-7.0469-15.746-15.742-15.746c-8.6953 0-15.746 7.0508-15.746 15.746s7.0508 15.742 15.746 15.742zm15.742 47.234c0 8.6953-7.0469 15.742-15.742 15.742-8.6953 0-15.746-7.0469-15.746-15.742 0-8.6992 7.0508-15.746 15.746-15.746 8.6953 0 15.742 7.0469 15.742 15.746zm-15.742 78.719c8.6953 0 15.742-7.0508 15.742-15.746 0-8.6953-7.0469-15.742-15.742-15.742-8.6953 0-15.746 7.0469-15.746 15.742 0 8.6953 7.0508 15.746 15.746 15.746zm78.719-204.67c0 8.6953-7.0469 15.742-15.742 15.742s-15.746-7.0469-15.746-15.742c0-8.6953 7.0508-15.746 15.746-15.746s15.742 7.0508 15.742 15.746zm-15.742 78.719c8.6953 0 15.742-7.0469 15.742-15.742s-7.0469-15.746-15.742-15.746-15.746 7.0508-15.746 15.746 7.0508 15.742 15.746 15.742zm15.742 47.234c0 8.6953-7.0469 15.742-15.742 15.742s-15.746-7.0469-15.746-15.742c0-8.6992 7.0508-15.746 15.746-15.746s15.742 7.0469 15.742 15.746zm-15.742 78.719c8.6953 0 15.742-7.0508 15.742-15.746 0-8.6953-7.0469-15.742-15.742-15.742s-15.746 7.0469-15.746 15.742c0 8.6953 7.0508 15.746 15.746 15.746zm78.719-204.67c0 8.6953-7.0469 15.742-15.742 15.742-8.6992 0-15.746-7.0469-15.746-15.742 0-8.6953 7.0469-15.746 15.746-15.746 8.6953 0 15.742 7.0508 15.742 15.746zm-15.742 78.719c8.6953 0 15.742-7.0469 15.742-15.742s-7.0469-15.746-15.742-15.746c-8.6992 0-15.746 7.0508-15.746 15.746s7.0469 15.742 15.746 15.742zm15.742 47.234c0 8.6953-7.0469 15.742-15.742 15.742-8.6992 0-15.746-7.0469-15.746-15.742 0-8.6992 7.0469-15.746 15.746-15.746 8.6953 0 15.742 7.0469 15.742 15.746zm47.23-110.21c8.6953 0 15.746-7.0469 15.746-15.742 0-8.6953-7.0508-15.746-15.746-15.746-8.6953 0-15.742 7.0508-15.742 15.746 0 8.6953 7.0469 15.742 15.742 15.742zm15.746 47.234c0 8.6953-7.0508 15.742-15.746 15.742-8.6953 0-15.742-7.0469-15.742-15.742s7.0469-15.746 15.742-15.746c8.6953 0 15.746 7.0508 15.746 15.746zm-15.746 78.719c8.6953 0 15.746-7.0469 15.746-15.742 0-8.6992-7.0508-15.746-15.746-15.746-8.6953 0-15.742 7.0469-15.742 15.746 0 8.6953 7.0469 15.742 15.742 15.742z" fill-rule="evenodd"/>
 </g>
</svg>