<?xml version="1.0" encoding="UTF-8"?>
<!-- Uploaded to: SVG Find, www.svgfind.com, Generator: SVG Find Mixer Tools -->
<svg fill="#000000" width="800px" height="800px" version="1.1" viewBox="144 144 512 512" xmlns="http://www.w3.org/2000/svg">
 <path d="m585.39 539.43c-10.285 31.508-45.754 66.098-67.773 66.098-1.5977 0.046875-2.9141-0.16016-4.2461-0.47656-79.469-22.262-141.3-62.469-200.53-130.38-53.551-61.398-86.355-129.21-100.27-207.32-5.3203-31.719 37.93-64.754 69.68-71.555 4.1289-0.88281 8.0312-1.332 11.594-1.332 11.383 0 18.609 4.6523 20.906 13.457l30.238 82.301c4.7227 9.7773-1.7109 17.5-12.605 29.293-14.465 15.652-32.477 35.133-5.6562 65.871l74.738 85.688c26.695 30.609 48.309 15.602 65.68 3.5352 13.082-9.0938 21.562-14.363 30.664-8.2422l79.457 42.453c7.2383 2.9922 14.602 10.762 8.125 30.613z"/>
</svg>