<!DOCTYPE svg PUBLIC "-//W3C//DTD SVG 1.1//EN" "http://www.w3.org/Graphics/SVG/1.1/DTD/svg11.dtd">
<!-- Uploaded to: SVG Find, www.svgfind.com, Transformed by: SVG Find Mixer Tools -->
<svg fill="#000000" width="256px" height="256px" version="1.1" viewBox="144 144 512 512" xmlns="http://www.w3.org/2000/svg">
<g id="SVGRepo_bgCarrier" stroke-width="0"/>
<g id="SVGRepo_tracerCarrier" stroke-linecap="round" stroke-linejoin="round"/>
<g id="SVGRepo_iconCarrier"> <path d="m541.7 409.84v-145.63c-0.046874-2.0586-0.58984-4.0742-1.582-5.8789-1.1172-1.8047-2.6445-3.3164-4.4531-4.4219l-129.89-72.816c-3.5859-2.0156-7.9648-2.0156-11.547 0l-129.89 72.816h-0.003906c-3.668 2.1445-5.957 6.0469-6.0352 10.301v145.63c0 4.2695 2.3086 8.2109 6.0352 10.301l129.89 72.816h0.003906c3.5859 2.0078 7.957 2.0078 11.547 0l129.89-72.816c3.7266-2.0898 6.0352-6.0312 6.0352-10.301zm-141.7-204.91 105.74 59.277-37.09 20.793-105.74-59.277zm-11.809 257.57-106.27-59.586v-118.55l106.27 59.578zm11.809-139.02-105.74-59.277 44.5-24.945 105.74 59.277zm118.08 79.434-106.27 59.578v-118.55l106.27-59.578zm-208.39-55.594 28.797 16.145h0.003907c5.6875 3.1875 12.883 1.1602 16.074-4.5273 3.1875-5.6914 1.1602-12.887-4.5273-16.078l-28.797-16.145-0.003907 0.003906c-5.6875-3.1914-12.883-1.1641-16.074 4.5273-3.1875 5.6875-1.1602 12.887 4.5273 16.074zm273.4 60.074c-8.6758-0.20313-17.082 3.0195-23.398 8.9688-6.3164 5.9492-10.039 14.148-10.359 22.82l-1.2109 27.898c-9.9219-2.9805-20.676-0.82031-28.68 5.7578l-55.617 45.551c-11.246 10.027-18.809 23.539-21.473 38.367l-6.4023 49.93c-0.72266 6.4141 3.8359 12.223 10.238 13.039 6.4023 0.82031 12.277-3.6523 13.195-10.039l6.3789-49.809c1.8633-8.8945 6.4141-17 13.031-23.227l55.609-45.543 0.003906 0.003907c2.3906-1.8984 5.6797-2.1953 8.3711-0.75391 2.6875 1.4414 4.2656 4.3438 4.0117 7.3867-0.19531 2.0078-1.1836 3.8555-2.7461 5.1367l-30.035 24.602 0.003906-0.003906c-2.5273 1.9492-4.1602 4.8398-4.5195 8.0078-0.36328 3.1719 0.57422 6.3555 2.5938 8.8242 2.0234 2.4688 4.957 4.0117 8.1367 4.2852 3.1797 0.26953 6.3359-0.76172 8.7422-2.8516l30.035-24.602c6.7695-5.5156 10.902-13.629 11.387-22.348l2.5469-58.742c0.22656-5.0664 4.457-9.0234 9.5273-8.9141 5.0703 0.10938 9.125 4.2461 9.1367 9.3164l-1.0508 80.375h-0.003906c-0.125 10.527-4.9102 20.457-13.059 27.121l-46.035 37.703c-11.5 8.4023-26.137 39.535-3.5195 42.328 6.2109-0.011719 11.352-4.8242 11.77-11.02 0.34766-5.0859 2.7773-9.8008 6.7148-13.035l46.035-37.707c13.547-11.074 21.496-27.578 21.711-45.078l1.0547-80.383c0.078125-8.6602-3.2422-17.008-9.25-23.246-6.0039-6.2383-14.219-9.8711-22.875-10.121zm-226.53 149.24c-2.6758-14.789-10.23-28.254-21.453-38.246l-55.609-45.555-0.003906-0.003906c-8.0195-6.5469-18.758-8.6992-28.68-5.7461l-1.207-27.75c-0.35938-11.695-6.8945-22.328-17.172-27.926-10.273-5.6016-22.75-5.3281-32.773 0.71094-10.023 6.0391-16.09 16.945-15.938 28.645l1.0508 80.379c0.21094 17.5 8.1602 34.008 21.715 45.082l46.035 37.715c3.9375 3.2305 6.3672 7.9453 6.7109 13.027 0.41797 6.1953 5.5625 11.008 11.77 11.02 22.613-2.7539 7.9688-33.977-3.5195-42.32l-46.031-37.719c-8.1562-6.6602-12.938-16.59-13.062-27.113l-1.0547-80.367c0.007812-5.0977 4.1094-9.2461 9.207-9.3164 5.1016-0.070312 9.3125 3.9648 9.457 9.0625l2.543 58.586h0.003906c0.54297 8.7031 4.6641 16.793 11.383 22.348l30.035 24.602c2.4102 2.0938 5.5625 3.1211 8.7422 2.8516 3.1797-0.26953 6.1172-1.8164 8.1367-4.2852 2.0234-2.4688 2.9609-5.6484 2.5977-8.8203-0.36328-3.1719-1.9922-6.0586-4.5195-8.0078l-30.027-24.605c-3.1406-2.6914-3.5586-7.3984-0.9375-10.602 2.6211-3.1992 7.3164-3.7227 10.574-1.1758l55.605 45.547c6.5977 6.1914 11.141 14.254 13.016 23.102l6.4023 49.93c0.92578 6.3789 6.7969 10.84 13.191 10.02 6.3945-0.81641 10.949-6.6094 10.242-13.016z"/> </g>
</svg>