<svg xmlns="http://www.w3.org/2000/svg" viewBox="0 0 500 400" fill="none">
  <!-- Background elements -->
  <circle cx="100" cy="100" r="80" fill="rgba(255,255,255,0.1)" />
  <circle cx="420" cy="320" r="60" fill="rgba(255,255,255,0.08)" />
  
  <!-- Medical staff illustration -->
  <!-- Doctor 1 -->
  <ellipse cx="150" cy="380" rx="35" ry="8" fill="rgba(0,0,0,0.1)" />
  <rect x="140" y="260" width="20" height="120" rx="10" fill="#3B82F6" />
  <circle cx="150" cy="240" r="25" fill="#FCD34D" />
  <path d="M135 230 Q150 225 165 230" stroke="#1F2937" stroke-width="2" fill="none" />
  <circle cx="145" cy="235" r="2" fill="#1F2937" />
  <circle cx="155" cy="235" r="2" fill="#1F2937" />
  <rect x="130" y="270" width="40" height="50" rx="5" fill="white" />
  <path d="M145 285 L145 305 M135 295 L155 295" stroke="#3B82F6" stroke-width="3" />
  
  <!-- Doctor 2 -->
  <ellipse cx="250" cy="380" rx="35" ry="8" fill="rgba(0,0,0,0.1)" />
  <rect x="240" y="260" width="20" height="120" rx="10" fill="#10B981" />
  <circle cx="250" cy="240" r="25" fill="#FCD34D" />
  <path d="M235 230 Q250 225 265 230" stroke="#1F2937" stroke-width="2" fill="none" />
  <circle cx="245" cy="235" r="2" fill="#1F2937" />
  <circle cx="255" cy="235" r="2" fill="#1F2937" />
  <rect x="230" y="270" width="40" height="50" rx="5" fill="white" />
  <circle cx="250" cy="295" r="8" stroke="#10B981" stroke-width="3" fill="none" />
  
  <!-- Nurse -->
  <ellipse cx="350" cy="380" rx="35" ry="8" fill="rgba(0,0,0,0.1)" />
  <rect x="340" y="260" width="20" height="120" rx="10" fill="#EC4899" />
  <circle cx="350" cy="240" r="25" fill="#FCD34D" />
  <path d="M335 230 Q350 225 365 230" stroke="#1F2937" stroke-width="2" fill="none" />
  <circle cx="345" cy="235" r="2" fill="#1F2937" />
  <circle cx="355" cy="235" r="2" fill="#1F2937" />
  
  <!-- Decorative medical elements -->
  <g transform="translate(50, 150)">
    <circle cx="0" cy="0" r="15" fill="rgba(255,255,255,0.2)" />
    <path d="M-8 0 L8 0 M0 -8 L0 8" stroke="white" stroke-width="3" />
  </g>
  
  <g transform="translate(420, 100)">
    <rect x="-10" y="-15" width="20" height="30" rx="3" fill="rgba(255,255,255,0.2)" />
    <rect x="-6" y="-20" width="12" height="8" rx="2" fill="rgba(255,255,255,0.15)" />
  </g>
  
  <!-- Heartbeat line -->
  <path d="M30 50 L60 50 L70 40 L80 60 L90 50 L470 50" 
        stroke="rgba(255,255,255,0.3)" 
        stroke-width="2" 
        fill="none" />
</svg>
