<?xml version="1.0" encoding="UTF-8"?>
<!-- Uploaded to: SVG Find, www.svgfind.com, Generator: SVG Find Mixer Tools -->
<svg fill="#000000" width="800px" height="800px" version="1.1" viewBox="144 144 512 512" xmlns="http://www.w3.org/2000/svg">
 <g fill-rule="evenodd">
  <path d="m295.04 279.29c-8.6953 0-15.746 7.0508-15.746 15.746v209.92c0 8.6953 7.0508 15.746 15.746 15.746h209.92c8.6953 0 15.746-7.0508 15.746-15.746v-136.45c0-8.6953 7.0508-15.746 15.742-15.746 8.6953 0 15.746 7.0508 15.746 15.746v136.45c0 26.086-21.148 47.234-47.234 47.234h-209.92c-26.086 0-47.234-21.148-47.234-47.234v-209.92c0-26.086 21.148-47.234 47.234-47.234h125.95c8.6914 0 15.742 7.0508 15.742 15.746 0 8.6953-7.0508 15.742-15.742 15.742z"/>
  <path d="m517.11 282.74c-4.1016-4.1016-10.746-4.1016-14.844 0l-104.43 104.42-4.4531 19.297 19.297-4.4531 104.43-104.42c4.0977-4.1016 4.0977-10.746 0-14.844zm-37.109-22.266c16.395-16.398 42.977-16.398 59.371 0 16.398 16.395 16.398 42.977 0 59.375l-105.48 105.49c-3.4805 3.4766-7.8633 5.9062-12.656 7.0117l-38.762 8.9453c-14.363 3.3125-27.23-9.5547-23.918-23.918l8.9492-38.762c1.1016-4.793 3.5352-9.1758 7.0117-12.652z"/>
 </g>
</svg>