<svg width="144" height="130" viewBox="0 0 144 130" fill="none" xmlns="http://www.w3.org/2000/svg">
<path d="M43.5541 104.161C42.8227 106.009 42.28 107.932 41.9497 109.882C38.5286 112.109 34.5177 113.4 30.2 113.4C17.6953 113.4 7.55 102.516 7.55 89.1V16.2C3.37391 16.2 0 12.5803 0 8.1C0 3.61969 3.37391 0 7.55 0H52.85C57.0261 0 60.4 3.61969 60.4 8.1C60.4 12.5803 57.0261 16.2 52.85 16.2V80.8987L43.5541 104.161ZM22.65 16.2V48.6H37.75V16.2H22.65ZM83.05 0H120.8C124.976 0 128.35 3.61969 128.35 8.1C128.35 12.5803 124.976 16.2 120.8 16.2V55.0294L142.341 108.945C142.884 110.312 143.238 111.755 143.379 113.248L143.45 113.4H143.379C143.426 113.856 143.45 114.311 143.45 114.767C143.45 122.943 137.268 129.6 129.624 129.6H66.6523C59.0316 129.6 52.8264 122.968 52.8264 114.767C52.8264 114.311 52.85 113.856 52.8972 113.4H52.8264L52.8972 113.248C53.0387 111.78 53.3927 110.312 53.9353 108.945L75.5 55.0294V16.2C71.3239 16.2 67.95 12.5803 67.95 8.1C67.95 3.61969 71.3239 0 75.5 0H83.05ZM106.927 61.4081C106.125 59.3831 105.7 57.2316 105.7 55.0294V16.2H90.6V55.0294C90.6 57.2316 90.1753 59.3831 89.3731 61.4081L81.54 81H114.736L106.903 61.4081H106.927Z" fill="black"/>
</svg>
