<?xml version="1.0" encoding="UTF-8"?>
<!-- Uploaded to: SVG Find, www.svgfind.com, Generator: SVG Find Mixer Tools -->
<svg fill="#000000" width="800px" height="800px" version="1.1" viewBox="144 144 512 512" xmlns="http://www.w3.org/2000/svg">
 <path d="m296.72 478.72c1.2227 26.203 12.781 50.852 32.137 68.555 19.355 17.707 44.934 27.02 71.145 25.91 26.207 1.1094 51.785-8.2031 71.145-25.91 19.355-17.703 30.91-42.352 32.137-68.555-0.41406-17.199-5.5156-33.957-14.754-48.469-9.2422-14.508-22.266-26.223-37.676-33.871v-138.08h12.125c5.6211 0 10.82-3 13.633-7.8711 2.8125-4.8711 2.8125-10.871 0-15.742s-8.0117-7.875-13.633-7.875h-125.95c-5.625 0-10.824 3.0039-13.637 7.875s-2.8125 10.871 0 15.742c2.8125 4.8711 8.0117 7.8711 13.637 7.8711h12.281v138.07l-0.003907 0.003906c-15.438 7.6289-28.496 19.332-37.762 33.844-9.2695 14.512-14.395 31.281-14.82 48.496zm167.36-27.867c4.9414 8.4648 7.6016 18.066 7.7148 27.867-1.2539 17.84-9.5 34.461-22.945 46.254-13.441 11.793-31 17.805-48.848 16.723-17.852 1.082-35.406-4.9297-48.852-16.723-13.445-11.793-21.688-28.414-22.941-46.254 0.089844-4.4688 0.72266-8.9102 1.8867-13.227 11.191 1.2031 22.438 1.8359 33.695 1.8906 22.215 0.027344 44.375-2.2422 66.125-6.7695 11.582-2.5273 22.992-5.7891 34.164-9.7617zm-93.363-29.758c2.9297-1.1641 5.4414-3.1836 7.2109-5.793 1.7656-2.6133 2.7109-5.6953 2.707-8.8477v-148.15h38.414v148.15c0 3.1523 0.94141 6.2344 2.7109 8.8477 1.7695 2.6094 4.2812 4.6289 7.2109 5.793 3.3594 1.3438 6.6211 2.9219 9.7617 4.7266-5.0391 1.418-9.918 2.6758-15.742 3.9375l-0.003906-0.003906c-24.734 5.1406-50.031 7.043-75.258 5.668 6.75-6.1875 14.602-11.047 23.145-14.328z"/>
</svg>