<?xml version="1.0" encoding="UTF-8"?>
<!-- Uploaded to: SVG Find, www.svgfind.com, Generator: SVG Find Mixer Tools -->
<svg fill="#000000" width="800px" height="800px" version="1.1" viewBox="144 144 512 512" xmlns="http://www.w3.org/2000/svg">
 <path d="m468 283.02v-79.445c11.359-1.9219 20.004-11.762 20.004-23.602 0-13.203-10.801-24-24-24h-128.02c-13.203 0-24 10.801-24 24 0 11.84 8.6445 21.68 20.004 23.602v79.453c-73.609 28.805-121.94 101.86-118.73 181.78 3.7617 94.41 80.57 172.98 174.82 178.82 4.0781 0.23438 8.0859 0.40234 12.082 0.40234 47.766 0 92.734-17.758 127.78-50.648 37.445-35.203 58.969-84.891 58.969-136.26 0-77.688-47.289-146.26-118.9-174.11zm56.969 185.14c-19.844 0-33.93 10.164-48.805 20.883-17.758 12.801-36.086 26-68.406 26-35.684 0-48.406-16.406-63.125-35.449-9.2031-12.004-18.805-24.402-34.402-33.762-22.727-13.602-46.25-13.203-63.605-9.7617 8.0859-58.168 48.965-108.18 106.26-126.5 6.6445-2.0781 11.125-8.2422 11.125-15.199l-0.003907-90.406h72.012v90.41c0 6.957 4.4805 13.121 11.125 15.199 64.488 20.562 107.78 79.855 107.78 147.54 0 5.3594-0.32422 10.562-0.80469 15.84-7.8398-2.7227-17.445-4.8008-29.125-4.8008z"/>
</svg>