<!DOCTYPE svg PUBLIC "-//W3C//DTD SVG 1.1//EN" "http://www.w3.org/Graphics/SVG/1.1/DTD/svg11.dtd">
<!-- Uploaded to: SVG Find, www.svgfind.com, Transformed by: SVG Find Mixer Tools -->
<svg fill="#000000" width="256px" height="256px" version="1.1" viewBox="144 144 512 512" xmlns="http://www.w3.org/2000/svg">
<g id="SVGRepo_bgCarrier" stroke-width="0"/>
<g id="SVGRepo_tracerCarrier" stroke-linecap="round" stroke-linejoin="round"/>
<g id="SVGRepo_iconCarrier"> <g> <path d="m375.44 202.33v2.3633c0.003906 3.9453-1.5625 7.7305-4.3555 10.523-2.7891 2.7891-6.5742 4.3555-10.523 4.3516h-80.449c-3.9453-0.007812-7.7227-1.5781-10.512-4.3672-2.7891-2.7891-4.3594-6.5664-4.3672-10.508v-2.3633c0.007812-3.9414 1.5781-7.7227 4.3672-10.508 2.7891-2.7891 6.5664-4.3594 10.512-4.3711h80.449c3.9492-0.003906 7.7344 1.5625 10.523 4.3555 2.793 2.7891 4.3594 6.5781 4.3555 10.523z"/> <path d="m187.06 473.84c0 81.867 68.25 147.21 148.78 137.84v-0.003907c30.047-4.1641 57.848-18.219 79.016-39.945 21.172-21.723 34.5-49.879 37.887-80.023 3.6211-27.426-1.3086-55.305-14.113-79.828h-236.71c-9.9102 19.141-15.008 40.406-14.859 61.961zm129.28 108.48 0.003906-0.003906c-5.2812 0-10.344-2.0938-14.074-5.8281-3.7344-3.7344-5.8281-8.7969-5.8281-14.074 0-5.2773 2.0938-10.34 5.8281-14.074 3.7305-3.7305 8.793-5.8281 14.074-5.8281 5.2773 0 10.34 2.0977 14.074 5.8281 3.7305 3.7344 5.8281 8.7969 5.8281 14.074-0.007813 5.2773-2.1055 10.336-5.8359 14.066-3.7305 3.7344-8.7891 5.832-14.066 5.8359zm44.109-95.953h0.003906c6.3438 0 12.426 2.5195 16.91 7.0039s7.0039 10.566 7.0039 16.91c0 6.3398-2.5195 12.422-7.0078 16.906-4.4844 4.4883-10.566 7.0078-16.906 7.0078-6.3438 0-12.426-2.5195-16.91-7.0039s-7.0039-10.566-7.0039-16.91c0.003907-6.3398 2.5273-12.422 7.0117-16.902 4.4805-4.4844 10.562-7.0078 16.902-7.0117zm-56.137-56.145c8.4688 0 16.59 3.3672 22.582 9.3555 5.9883 5.9883 9.3516 14.109 9.3516 22.578 0 8.4727-3.3633 16.594-9.3516 22.582-5.9922 5.9883-14.113 9.3555-22.582 9.3555s-16.594-3.3672-22.582-9.3555-9.3516-14.109-9.3516-22.582c0.007813-8.4648 3.375-16.582 9.3633-22.57 5.9844-5.9844 14.102-9.3516 22.57-9.3633z"/> <path d="m320.5 562.41c0 5.5469-8.3164 5.5469-8.3164 0 0-5.543 8.3164-5.543 8.3164 0"/> <path d="m320.5 462.16c0 8.9414-7.2461 16.191-16.188 16.191s-16.191-7.25-16.191-16.191 7.25-16.188 16.191-16.188 16.188 7.2461 16.188 16.188"/> <path d="m360.45 518.45c3.3047 0 6.2852-1.9922 7.5469-5.043 1.2656-3.0547 0.56641-6.5703-1.7734-8.9062-2.3359-2.3359-5.8516-3.0312-8.9023-1.7656-3.0547 1.2617-5.043 4.2422-5.043 7.5469 0.003906 4.5117 3.6602 8.168 8.1719 8.168z"/> <path d="m367.02 349.3c-4.1094-2.543-6.5898-7.0508-6.5352-11.887v-102.1h-80.059l-0.15625 102.1v-0.003907c0.042969 4.8516-2.4688 9.3672-6.6133 11.887-24.805 9.2266-46.367 25.508-62.035 46.836h217.12c-15.68-21.184-37.098-37.434-61.719-46.836z"/> <path d="m498.05 279.52h96.746c10.02 0 18.141 10.02 18.141 18.141 0 10.02-8.1211 18.141-18.141 18.141h-96.746c-10.02 0-18.141-10.02-18.141-18.141 0-10.02 8.1211-18.141 18.141-18.141z"/> <path d="m498.09 331.51h96.746v31.293h-96.746z"/> <path d="m498.08 378.55v185.66c0 17.285 9.2227 33.254 24.188 41.895 14.969 8.6406 33.406 8.6406 48.375 0 14.965-8.6406 24.188-24.609 24.188-41.895v-31.07l-48.41 0.003906c-4.3477 0-7.8711-3.5273-7.8711-7.875s3.5234-7.8711 7.8711-7.8711h48.41v-20.535h-48.41c-4.3477 0-7.8711-3.5273-7.8711-7.875s3.5234-7.8711 7.8711-7.8711h48.41v-20.535h-48.41c-4.3477 0-7.8711-3.5234-7.8711-7.8711 0-4.3477 3.5234-7.8711 7.8711-7.8711h48.41v-20.539h-48.41c-4.3477 0-7.8711-3.5234-7.8711-7.8711 0-4.3477 3.5234-7.8711 7.8711-7.8711h48.41v-30.004z"/> </g> </g>
</svg>