<?xml version="1.0" encoding="UTF-8"?>
<!-- Uploaded to: SVG Find, www.svgfind.com, Generator: SVG Find Mixer Tools -->
<svg fill="#000000" width="800px" height="800px" version="1.1" viewBox="144 144 512 512" xmlns="http://www.w3.org/2000/svg">
 <path d="m186.12 324.49 186.02-135.82c16.598-12.121 39.137-12.121 55.734 0l186.01 135.82c4.0664 2.9297 6.5352 7.6602 6.5352 12.762v235.97c0 26.062-21.145 47.191-47.23 47.191h-346.37c-26.086 0-47.23-21.129-47.23-47.191v-235.97c0-5.1016 2.4688-9.832 6.5352-12.762zm204.59-110.42c5.5312-4.0391 13.043-4.0391 18.578 0l168.22 122.83-168.55 116.59c-5.3906 3.7305-12.531 3.7305-17.926 0l-168.55-116.59zm-37.945 296.22c0-8.6875-7.0469-15.73-15.742-15.73h-94.465c-8.6953 0-15.746 7.043-15.746 15.73v47.195c0 8.6875 7.0508 15.73 15.746 15.73h94.465c8.6953 0 15.742-7.043 15.742-15.73z" fill-rule="evenodd"/>
</svg>