<!DOCTYPE svg PUBLIC "-//W3C//DTD SVG 1.1//EN" "http://www.w3.org/Graphics/SVG/1.1/DTD/svg11.dtd">
<!-- Uploaded to: SVG Find, www.svgfind.com, Transformed by: SVG Find Mixer Tools -->
<svg fill="#000000" width="256px" height="256px" version="1.1" viewBox="144 144 512 512" xmlns="http://www.w3.org/2000/svg">
<g id="SVGRepo_bgCarrier" stroke-width="0"/>
<g id="SVGRepo_tracerCarrier" stroke-linecap="round" stroke-linejoin="round"/>
<g id="SVGRepo_iconCarrier"> <g> <path d="m257.52 560.59v17.32c0 4.7227 3.1484 7.8711 7.8711 7.8711h270.01c4.7227 0 7.8711-3.1484 7.8711-7.8711v-17.32c0-59.828-48.02-108.63-107.06-111v-14.168h24.402c22.828 0 40.934-18.105 40.934-40.934v-49.594c0-26.766-10.234-52.742-29.914-71.637-4.7227-4.7227-11.02-9.4453-16.531-13.383l7.0859-27.551c0.78906-3.9375-0.78906-7.8711-4.7227-9.4453-37.785-13.383-76.359-13.383-114.14 0-3.9375 1.5742-6.2969 5.5117-4.7227 9.4453l7.0859 27.551c-29.125 18.105-46.445 50.383-46.445 85.02v49.594c0 22.828 18.105 40.934 40.934 40.934h24.402v14.168c-59.828 2.3633-107.06 51.172-107.06 111zm142.48-140.91c-27.551 0-50.383-22.828-50.383-50.383v-27.551c0-11.02 8.6602-19.68 19.68-19.68h61.402c11.02 0 19.68 8.6602 19.68 19.68v27.551c0 28.34-22.828 50.383-50.379 50.383zm-19.68 37.785v-25.191c6.2969 1.5742 12.594 3.1484 19.68 3.1484s13.383-0.78906 19.68-3.1484v25.191c0 4.7227 3.1484 7.8711 7.8711 7.8711l-27.551 33.852-27.551-33.062c4.7188-0.78906 7.8711-3.9375 7.8711-8.6602zm146.42 103.12v9.4453h-32.273l-0.003906-20.465c0-4.7227-3.1484-7.8711-7.8711-7.8711s-7.8711 3.1484-7.8711 7.8711v21.254h-15.742v-21.254c0-4.7227-3.1484-7.8711-7.8711-7.8711-4.7227 0-7.8711 3.1484-7.8711 7.8711v21.254h-173.98v-9.4453c0-47.23 34.637-86.594 80.293-93.676l40.934 48.805h0.78906s0 0.78906 0.78906 0.78906c0 0 0.78906 0.78906 1.5742 0.78906 0 0 0.78906 0 0.78906 0.78906 0.78906 0.78906 1.5742 0.78906 3.1484 0.78906 0.78906 0 2.3633 0 3.1484-0.78906 0 0 0.78906 0 0.78906-0.78906 0.78906 0 0.78906 0 1.5742-0.78906 0 0 0-0.78906 0.78906-0.78906h0.78906l40.934-48.805c42.504 6.2969 77.141 45.656 77.141 92.887zm-81.871-324.32-10.234 38.574h-69.273l-10.234-38.574c29.918-8.6602 59.832-8.6602 89.742 0zm-130.67 159.01v-49.594c0-27.551 13.383-52.742 35.426-69.273l2.3633 7.8711c0.78906 3.1484 3.9375 5.5117 7.8711 5.5117h81.082c3.9375 0 6.2969-2.3633 7.8711-5.5117l2.3633-7.8711c3.1484 2.3633 7.0859 5.5117 10.234 8.6602 16.531 15.742 25.191 37.785 25.191 60.613v49.594c0 14.168-11.02 25.191-25.191 25.191h-18.105c14.957-11.809 23.617-30.699 23.617-50.383v-27.551c0-19.68-15.742-35.426-35.426-35.426h-61.402c-19.68 0-35.426 15.742-35.426 35.426v27.551c0 20.469 9.4453 38.574 23.617 50.383h-18.105c-14.176 0-25.98-11.809-25.98-25.191z"/> <path d="m341.75 503.12h-25.191c-4.7227 0-7.8711 3.1484-7.8711 7.8711 0 4.7227 3.1484 7.8711 7.8711 7.8711h25.191c4.7227 0 7.8711-3.1484 7.8711-7.8711 0-4.7227-3.1484-7.8711-7.8711-7.8711z"/> </g> </g>
</svg>