<?xml version="1.0" encoding="UTF-8"?>
<!-- Uploaded to: SVG Find, www.svgfind.com, Generator: SVG Find Mixer Tools -->
<svg fill="#000000" width="800px" height="800px" version="1.1" viewBox="144 144 512 512" xmlns="http://www.w3.org/2000/svg">
 <g>
  <path d="m251.71 492.13c0 30.754 25.023 55.797 55.797 55.797 30.754 0 55.777-25.023 55.777-55.797 0-23.32-14.422-43.285-34.785-51.598v-77.082c20.363-8.3125 34.785-28.277 34.785-51.598 0-30.754-25.023-55.797-55.777-55.797-30.773 0-55.797 25.023-55.797 55.797 0 23.32 14.422 43.305 34.805 51.621v77.062c-20.383 8.3086-34.805 28.27-34.805 51.594zm55.797 13.812c-7.6211 0-13.812-6.1914-13.812-13.812 0-7.5977 6.1914-13.793 13.812-13.793 7.5977 0 13.793 6.1914 13.793 13.793 0 7.6211-6.1953 13.812-13.793 13.812zm0-207.91c7.5977 0 13.793 6.1914 13.793 13.812 0 7.5977-6.1914 13.793-13.793 13.793-7.6211 0-13.812-6.1914-13.812-13.793 0-7.6172 6.1719-13.812 13.812-13.812z"/>
  <path d="m446.81 259.12c-7.7031-8.668-20.973-9.4453-29.621-1.7422l-39.863 35.434c-4.4922 3.9883-7.0547 9.6992-7.0547 15.703s2.5625 11.715 7.0547 15.68l39.863 35.457c3.9883 3.5469 8.9844 5.3125 13.938 5.3125 5.7734 0 11.547-2.3711 15.68-7.0312 7.3477-8.2695 6.7578-20.594-0.82031-28.402h8.332c5.625 0 9.5742 3.4219 11.418 5.457 3.7148 4.0742 5.7305 9.5938 5.7305 15.535l-0.019531 90.035c-20.363 8.3125-34.762 28.277-34.762 51.598 0 30.754 25.023 55.797 55.777 55.797 30.773 0 55.797-25.023 55.797-55.797 0-23.344-14.441-43.305-34.824-51.621l0.019531-89.992c0.019531-16.414-5.8984-31.949-16.648-43.789-11.25-12.387-26.367-19.207-42.488-19.207h-8.332c7.582-7.832 8.1914-20.156 0.82422-28.426zm45.676 246.82c-7.5977 0-13.793-6.1914-13.793-13.812 0-7.5977 6.1914-13.793 13.793-13.793 7.6211 0 13.812 6.1914 13.812 13.793 0 7.6211-6.1719 13.812-13.812 13.812z"/>
  <path d="m505 190.08h-209.96c-57.875 0-104.94 47.086-104.94 104.94v17.719c0 11.586 9.3828 20.992 20.992 20.992s20.992-9.4062 20.992-20.992v-17.719c0-34.719 28.258-62.953 62.957-62.953h209.96c34.699 0 62.934 28.234 62.934 62.953v209.98c0 34.699-28.234 62.934-62.934 62.934h-209.96c-34.699 0-62.957-28.234-62.957-62.934v-120.7c0-11.586-9.3828-20.992-20.992-20.992s-20.992 9.4062-20.992 20.992v120.7c0 57.855 47.066 104.92 104.94 104.92h209.96c57.855 0 104.92-47.062 104.92-104.92v-209.98c0-57.852-47.062-104.94-104.92-104.94z"/>
 </g>
</svg>