<?xml version="1.0" encoding="UTF-8"?>
<!-- Uploaded to: SVG Find, www.svgfind.com, Generator: SVG Find Mixer Tools -->
<svg fill="#000000" width="800px" height="800px" version="1.1" viewBox="144 144 512 512" xmlns="http://www.w3.org/2000/svg">
 <path d="m500.42 470.52c27.367-34.93 40.371-78.988 36.359-123.18-4.0156-44.195-24.746-85.188-57.961-114.61-33.215-29.43-76.406-45.07-120.76-43.73-44.355 1.3398-86.527 19.559-117.91 50.938-31.375 31.379-49.594 73.547-50.934 117.9s14.301 87.551 43.727 120.77c29.426 33.211 70.422 53.941 114.61 57.957 44.195 4.0156 88.254-8.9922 123.18-36.359l103.58 103.57c5.3281 5.168 12.988 7.1367 20.152 5.1797 7.1602-1.957 12.754-7.5508 14.711-14.711 1.957-7.1602-0.011719-14.824-5.1797-20.152zm-268.13-106.83c-0.003906-34.906 13.859-68.383 38.539-93.066 24.68-24.684 58.156-38.555 93.059-38.555 34.906-0.003906 68.383 13.863 93.066 38.543 24.684 24.68 38.547 58.156 38.547 93.062 0.003906 34.902-13.863 68.379-38.547 93.062-24.684 24.68-58.156 38.543-93.062 38.543-34.887-0.042969-68.336-13.918-93.008-38.59-24.668-24.668-38.547-58.113-38.594-93z"/>
</svg>