<!DOCTYPE svg PUBLIC "-//W3C//DTD SVG 1.1//EN" "http://www.w3.org/Graphics/SVG/1.1/DTD/svg11.dtd">
<!-- Uploaded to: SVG Find, www.svgfind.com, Transformed by: SVG Find Mixer Tools -->
<svg fill="#000000" width="256px" height="256px" version="1.1" viewBox="144 144 512 512" xmlns="http://www.w3.org/2000/svg">
<g id="SVGRepo_bgCarrier" stroke-width="0"/>
<g id="SVGRepo_tracerCarrier" stroke-linecap="round" stroke-linejoin="round"/>
<g id="SVGRepo_iconCarrier"> <g> <path d="m217.84 360.64v232.78c0 9.25 3.6758 18.117 10.215 24.66 6.5391 6.5391 15.41 10.215 24.66 10.215h96.668c7.7734 0.042969 15.336-2.5352 21.465-7.3203s10.465-11.5 12.305-19.055c9.3086-2.875 17.785-7.9531 24.719-14.797l99.5-99.426 4.4102 4.4102c6.4961 6.5117 15.973 9.0625 24.859 6.6914 8.8867-2.3711 15.836-9.3047 18.223-18.188 2.3906-8.8789-0.13672-18.363-6.6328-24.871l-14.406-14.25 39.988-39.988c6.2852-4.9609 10.148-12.367 10.617-20.359 0.46875-7.9883-2.5-15.797-8.1602-21.457-5.6602-5.6602-13.469-8.6289-21.461-8.1602-7.9883 0.46875-15.398 4.332-20.355 10.613l-39.992 39.754-14.168-14.25v0.003906c-6.5117-6.5117-16-9.0547-24.895-6.6719-8.8945 2.3828-15.84 9.332-18.223 18.223-2.3828 8.8945 0.16016 18.387 6.668 24.895l4.4102 4.4883-64 63.922v-131.86c-0.027344-7.8594-2.7109-15.477-7.6094-21.621-4.9023-6.1445-11.734-10.453-19.391-12.227v-20.469c7.8008-2.5391 13.922-8.6562 16.461-16.457 2.5391-7.8008 1.1953-16.348-3.6172-22.996-4.8125-6.6445-12.512-10.59-20.715-10.613h-20.234v-56.52c0.41016-7.6797-2.3555-15.188-7.6484-20.77-5.293-5.5781-12.645-8.7383-20.336-8.7383-7.6875 0-15.043 3.1602-20.332 8.7383-5.293 5.582-8.0586 13.09-7.6523 20.77v56.52h-20.23c-8.207 0.023438-15.906 3.9688-20.719 10.613-4.8125 6.6484-6.1562 15.195-3.6133 22.996 2.5391 7.8008 8.6562 13.918 16.461 16.457v20.469c-7.7031 1.7266-14.586 6.0156-19.535 12.164s-7.6641 13.793-7.7031 21.684zm15.742 232.78v-14.168h95.566l-15.742 15.742c-2.3281 2.2109-4.0195 5.0078-4.9062 8.0938-0.88672 3.0859-0.92969 6.3516-0.13281 9.4609h-55.652c-5.0742 0-9.9414-2.0156-13.527-5.6016-3.5898-3.5898-5.6055-8.4531-5.6055-13.527zm118.08 18.734 7.8711-7.8711h5.5898c-3.1172 4.6484-8.1328 7.6758-13.695 8.2656zm193.81-239.07c2.293-2.3086 5.4102-3.6055 8.6602-3.6055s6.3672 1.2969 8.6602 3.6055c2.3477 2.2656 3.6719 5.3906 3.6719 8.6562s-1.3242 6.3906-3.6719 8.6602l-39.91 39.988-17.32-17.398zm-90.371 25.738c1.8789-1.8828 4.4258-2.9414 7.0859-2.9414s5.207 1.0586 7.0859 2.9414l68.094 68.016c3.4219 4.0078 3.1797 9.9727-0.55859 13.688-3.7344 3.7188-9.7031 3.9258-13.691 0.48047l-68.016-68.012c-1.8828-1.8789-2.9414-4.4258-2.9414-7.0859s1.0586-5.207 2.9414-7.0859zm17.32 53.766-101.63 101.39c-3.1289 3.0625-3.1836 8.0859-0.11719 11.215 3.0664 3.1328 8.0859 3.1836 11.219 0.12109l101.47-101.63 12.832 12.91-99.426 99.344c-10.281 10.355-24.98 15.031-39.359 12.516-2.5039-0.41016-5.0547 0.41016-6.8477 2.207l-20.625 20.703c-1.5039 1.4883-3.9297 1.4883-5.4336 0-0.73438-0.71094-1.1484-1.6914-1.1484-2.7148 0-1.0273 0.41406-2.0078 1.1484-2.7188l20.391-20.703c1.8203-1.8125 2.6445-4.3945 2.2031-6.9258-2.4727-14.375 2.1953-29.055 12.516-39.359l99.742-99.582zm-123.59 75.336c-9.5742 9.6055-15.668 22.125-17.32 35.582h-97.93v-165.31h134.93v110.21zm19.68-167.28v21.805l-134.93 0.003906v-21.809c0-5.0703 2.0156-9.9375 5.6055-13.523 3.5859-3.5898 8.4531-5.6055 13.527-5.6055h96.668c5.0703 0 9.9375 2.0156 13.523 5.6055 3.5898 3.5859 5.6055 8.4531 5.6055 13.523zm-27-52.898v18.027h-80.926v-18.027zm-52.746-108c-0.27344-3.418 0.89453-6.793 3.2188-9.3125s5.5977-3.9492 9.0234-3.9492c3.4258 0 6.6992 1.4297 9.0234 3.9492s3.4922 5.8945 3.2188 9.3125v56.52h-24.484zm-35.816 72.266h96.195c5.5234 0 10 4.4766 10 9.9961 0 5.5234-4.4766 10-10 10h-96.195c-5.5234 0-9.9961-4.4766-9.9961-10 0-5.5195 4.4727-9.9961 9.9961-9.9961z"/> <path d="m329.86 420.7h-57.625c-4.3477 0-7.8711 3.5234-7.8711 7.8711 0 4.3477 3.5234 7.8711 7.8711 7.8711h57.625c4.3477 0 7.8711-3.5234 7.8711-7.8711 0-4.3477-3.5234-7.8711-7.8711-7.8711z"/> <path d="m285.07 464.71h31.883c4.3477 0 7.8711-3.5234 7.8711-7.8711 0-4.3477-3.5234-7.875-7.8711-7.875h-31.883c-4.3477 0-7.8711 3.5273-7.8711 7.875 0 4.3477 3.5234 7.8711 7.8711 7.8711z"/> <path d="m301.05 479.27c-8.832 0-17.301 3.5078-23.547 9.7539-6.2422 6.2422-9.75 14.715-9.75 23.547 0 8.8281 3.5078 17.301 9.75 23.543 6.2461 6.2461 14.715 9.7539 23.547 9.7539s17.301-3.5078 23.547-9.7539c6.2422-6.2422 9.7539-14.715 9.7539-23.543-0.023437-8.8281-3.5391-17.285-9.7773-23.523-6.2422-6.2422-14.699-9.7578-23.523-9.7773zm0 50.852v0.003906c-4.6562 0-9.1211-1.8516-12.414-5.1445-3.2891-3.293-5.1406-7.7578-5.1406-12.41 0-4.6562 1.8516-9.1211 5.1406-12.414 3.293-3.293 7.7578-5.1406 12.414-5.1406s9.1211 1.8477 12.414 5.1406c3.293 3.293 5.1406 7.7578 5.1406 12.414 0 4.6523-1.8477 9.1172-5.1406 12.41-3.293 3.293-7.7578 5.1445-12.414 5.1445z"/> </g> </g>
</svg>