<?xml version="1.0" encoding="UTF-8"?>
<!-- Uploaded to: SVG Find, www.svgfind.com, Generator: SVG Find Mixer Tools -->
<svg fill="#000000" width="800px" height="800px" version="1.1" viewBox="144 144 512 512" xmlns="http://www.w3.org/2000/svg">
 <g>
  <path d="m579.91 346.82h-15.867c-6 0-11.355-3.582-13.723-9.3203-2.2422-5.4102-1.0117-11.602 3.1445-15.758l11.371-11.371c11.684-11.699 11.672-30.738-0.011719-42.422l-32.758-32.758c-5.6562-5.6719-13.188-8.8008-21.211-8.8008h-0.011718c-8.0234 0-15.551 3.1172-21.223 8.7891l-11.219 11.219c-4.25 4.2227-10.562 5.4922-16.25 3.1289-5.4531-2.2422-8.9648-7.4883-8.9648-13.379l-0.007813-16.059c0-16.551-13.461-30.012-30.012-30.012h-46.332c-16.551 0-30.012 13.461-30.012 30.012v15.867c0 6-3.582 11.355-9.1445 13.652-5.5352 2.2812-11.848 1.0234-16.07-3.2109l-11.219-11.219c-5.6719-5.6719-13.203-8.7891-21.223-8.7891h-0.011718c-8.0234 0-15.551 3.1289-21.195 8.7891l-32.777 32.77c-11.684 11.684-11.699 30.723 0 42.434l11.219 11.219c4.2383 4.2383 5.4922 10.535 3.1992 16.086-2.2812 5.5469-7.6406 9.1289-13.641 9.1289l-15.867 0.003906c-16.551 0-30.012 13.461-30.012 30.012v46.332c0 16.551 13.461 30.012 30.012 30.012h15.867c6 0 11.355 3.582 13.652 9.1445 2.2812 5.5352 1.0234 11.836-3.2109 16.07l-11.219 11.219c-5.6719 5.6719-8.8008 13.215-8.7891 21.238 0 8.0234 3.1289 15.551 8.7891 21.195l32.773 32.773c11.699 11.699 30.711 11.699 42.434 0l11.219-11.219c4.2227-4.2227 10.523-5.4922 16.086-3.1992 5.5469 2.2812 9.1289 7.6406 9.1289 13.641v15.867c0 16.551 13.461 30.012 30.012 30.012h46.332c16.551 0 30.012-13.461 30.012-30.012v-15.867c0-6 3.582-11.355 9.1445-13.652 5.5469-2.2695 11.848-1.0117 16.07 3.2109l11.234 11.234c11.699 11.672 30.723 11.684 42.422-0.011719l32.758-32.758c5.6719-5.6562 8.8008-13.188 8.8008-21.211 0.011719-8.0234-3.1172-15.566-8.7891-21.238l-11.219-11.219c-4.2383-4.2383-5.4922-10.535-3.1992-16.086 2.2812-5.5469 7.6406-9.1289 13.641-9.1289h15.867c16.551-0.003907 30.012-13.465 30.012-30.016v-46.332c0-16.551-13.461-30.012-30.012-30.012zm2.0234 76.344c0 1.1211-0.90234 2.0234-2.0234 2.0234h-15.867c-17.383 0-32.895 10.387-39.512 26.445-6.6289 16.016-2.9805 34.289 9.2812 46.547l11.219 11.219c0.49219 0.49219 0.60156 1.0508 0.58594 1.4336 0 0.38281-0.09375 0.92969-0.58594 1.4219l-32.773 32.773c-0.79297 0.80469-2.0781 0.77734-2.8555 0l-11.219-11.219c-12.273-12.258-30.531-15.922-46.535-9.293-16.07 6.6289-26.457 22.141-26.457 39.523v15.867c0 1.1211-0.90234 2.0234-2.0234 2.0234h-46.332c-1.1211 0-2.0234-0.90234-2.0234-2.0234v-15.867c0-17.383-10.387-32.895-26.445-39.512-5.3008-2.1992-10.863-3.2656-16.359-3.2656-11.109 0-21.988 4.3477-30.191 12.547l-11.207 11.207c-0.79297 0.79297-2.0781 0.80469-2.8711 0.011719l-32.785-32.785c-0.47656-0.47656-0.57422-1.0234-0.57422-1.4062-0.011719-0.38281 0.09375-0.94141 0.58594-1.4336l11.219-11.219c12.258-12.258 15.906-30.531 9.293-46.535-6.6289-16.07-22.141-26.457-39.523-26.457l-15.859-0.003906c-1.1211 0-2.0234-0.90234-2.0234-2.0234v-46.332c0-1.1211 0.90234-2.0234 2.0234-2.0234h15.867c17.383 0 32.895-10.387 39.512-26.445 6.6289-16.016 2.9805-34.289-9.2812-46.547l-11.207-11.207c-0.79297-0.79297-0.79297-2.0781-0.011719-2.8711l32.785-32.785c0.47656-0.47656 1.0234-0.57422 1.4062-0.57422 0.38281 0 0.94141 0.09375 1.4336 0.58594l11.219 11.219c12.258 12.246 30.52 15.879 46.535 9.293 16.07-6.6289 26.457-22.141 26.457-39.523l0.007812-15.863c0-1.1211 0.89844-2.0234 2.0195-2.0234h46.332c1.1211 0 2.0234 0.90234 2.0234 2.0234v16.059c0 17.262 10.32 32.664 26.445 39.32 16.016 6.6562 34.305 2.9805 46.547-9.2812l11.219-11.219c0.49219-0.49219 1.0508-0.58594 1.4336-0.58594 0.38281 0 0.92969 0.09375 1.4219 0.58594l32.773 32.773c0.77734 0.79297 0.77734 2.0781 0 2.8555l-11.355 11.355c-12.176 12.176-15.797 30.312-9.1562 46.398 6.6289 16.07 22.141 26.457 39.523 26.457h15.867c1.1211 0.003906 2.0234 0.90234 2.0234 2.0234z"/>
  <path d="m400 311.55c-48.777 0-88.449 39.676-88.449 88.449-0.003906 48.777 39.672 88.453 88.449 88.453 48.773 0 88.449-39.676 88.449-88.449 0-48.777-39.676-88.453-88.449-88.453zm0 148.91c-33.332 0-60.461-27.129-60.461-60.461-0.003906-33.336 27.125-60.465 60.461-60.465 33.332 0 60.461 27.129 60.461 60.465 0 33.332-27.129 60.461-60.461 60.461z"/>
 </g>
</svg>