<?xml version="1.0" encoding="UTF-8"?>
<!-- Uploaded to: SVG Find, www.svgfind.com, Generator: SVG Find Mixer Tools -->
<svg fill="#000000" width="800px" height="800px" version="1.1" viewBox="144 144 512 512" xmlns="http://www.w3.org/2000/svg">
 <path d="m393 526.27-127.52 80.738 37.383-146.21c1.2539-4.9062-0.42578-10.09-4.3281-13.32l-116.19-96.34 150.62-9.6328c5.0547-0.32422 9.4648-3.5312 11.332-8.2344l55.707-140.27 55.711 140.27c1.8711 4.7031 6.2812 7.9102 11.332 8.2344l150.6 9.6289-116.18 96.332c-3.8906 3.2266-5.582 8.4141-4.3281 13.324l37.383 146.22-127.52-80.734c-2.1367-1.3555-4.5703-2.0312-7-2.0312-2.4375-0.003907-4.8672 0.67578-7.0078 2.0234z" fill-rule="evenodd"/>
</svg>